<?xml version="1.0" encoding="UTF-8" standalone="no"?>
<!DOCTYPE svg PUBLIC "-//W3C//DTD SVG 1.1//EN" "http://www.w3.org/Graphics/SVG/1.1/DTD/svg11.dtd">
  <svg width="100%" height="100%" viewBox="0 0 1699 1699" version="1.1" xmlns="http://www.w3.org/2000/svg" 
  xmlns:xlink="http://www.w3.org/1999/xlink" xml:space="preserve" xmlns:serif="http://www.serif.com/" 
  style="fill-rule:evenodd;clip-rule:evenodd;stroke-linejoin:round;stroke-miterlimit:2;">
  <g>
    <g>
      <rect x="143.962" y="142.338" width="1415.95" height="1419.54" style="fill:#00ecff;"/>
      <path d="M1357.84,240.817l-1017.36,0c-48.95,0 -88.775,39.8 -88.775,88.745l0,1039.28c0,48.909 
      39.8,88.738 88.775,88.738l1017.36,0c48.933,0 88.758,-39.804 88.758,-88.738l0,-1039.28c-0.025,-48.945 
      -39.825,-88.745 -88.758,-88.745Zm-432.446,797.679l-190.034,0l-183.516,-279.925l0,279.925l-170.638,0l0,
      -687.125l170.638,0l0,279.937l183.516,-279.937l190.034,0l-228.254,343.796l228.254,343.329Zm598.904,
      -1038.5l-1350.29,0c-88.07,0 -159.491,71.425 -159.491,159.504l0,1379.31c0,88.1 71.421,159.516 159.491,
      159.516l1350.31,0c88.075,0 159.492,-71.42 159.492,-159.516l0,-1379.31c0,-88.079 -71.417,-159.504 
      -159.517,-159.504Zm-14.825,1368.79c0,83.587 -68.025,151.637 -151.638,151.637l-1017.35,0c-83.6,0 
      -151.65,-68.025 -151.65,-151.637l0,-1039.22c0,-83.575 68.021,-151.621 151.65,-151.621l1017.36,0c83.587,0 
      151.637,68.025 151.637,151.621l0,1039.22l-0.004,0Z" style="fill-rule:nonzero;"/>
    </g>
  </g>

  </svg>